<svg width="84" height="84" viewBox="0 0 84 84" fill="none" xmlns="http://www.w3.org/2000/svg">
<rect width="84" height="84" fill="black"/>
<path d="M74 25.2937C74 16.3219 66.8558 9 58.1017 9C53.5736 9 49.448 10.9593 46.6306 14.0531L10.7082 37.2563C10.0038 37.6688 9.80268 38.7001 10.2051 39.4219C10.507 39.9376 11.0101 40.1438 11.5133 40.1438C11.815 40.1438 12.0163 40.0406 12.3182 39.9376L43.0082 20.0344C42.4045 21.6844 42.1026 23.4376 42.1026 25.3969C42.1026 29.5218 43.6119 33.2345 46.0268 36.122L21.8773 60.7688C21.2736 61.3876 21.2736 62.3158 21.8773 62.9344C22.1792 63.2438 22.5817 63.3469 22.9842 63.3469C23.3868 63.3469 23.7893 63.2438 24.0912 62.9344L48.2406 38.2876C50.9573 40.4531 54.3785 41.7938 58.0011 41.7938C60.1142 41.7938 62.1265 41.3813 63.9378 40.6594L44.7189 72.6282C44.3162 73.35 44.5175 74.2782 45.2219 74.7938C45.4232 75 45.7249 75 46.0268 75C46.53 75 47.0331 74.6907 47.335 74.2782L70.4782 35.6063C72.692 32.7188 74 29.2125 74 25.2937ZM50.4543 36.0188L57.4979 28.9032C58.1017 28.2844 58.1017 27.3562 57.4979 26.7375C56.8941 26.1187 55.9886 26.1187 55.3848 26.7375L48.2406 33.9563C46.3287 31.6875 45.1213 28.6969 45.1213 25.3969C45.2219 18.0749 50.9573 12.0938 58.1017 12.0938C65.2458 12.0938 70.9814 18.0749 70.9814 25.2937C70.9814 32.6157 65.1452 38.4938 58.1017 38.4938C55.2842 38.5969 52.5674 37.5656 50.4543 36.0188Z" fill="#25B7EB"/>
<path d="M58.1017 14.5688C52.2656 14.5688 47.5363 19.4156 47.5363 25.3969C47.5363 26.2219 48.2406 26.9437 49.0457 26.9437C49.8507 26.9437 50.555 26.2219 50.555 25.3969C50.555 21.1687 53.8755 17.6624 58.1017 17.6624C58.9068 17.6624 59.6111 16.9406 59.6111 16.1156C59.6111 15.2906 58.9068 14.5688 58.1017 14.5688Z" fill="#25B7EB"/>
</svg>
